<svg width="122" height="30" viewBox="0 0 122 30" fill="none" xmlns="http://www.w3.org/2000/svg">
<path d="M63.9227 4.88C63.9227 4.4 63.6827 4.16 63.2027 4.16H61.1627C60.6827 4.16 60.4427 4.4 60.4427 4.88V8.72C60.4427 9.2 60.6827 9.44 61.1627 9.44H63.2027C63.6827 9.44 63.9227 9.2 63.9227 8.72V4.88ZM66.0827 8.72C66.0827 9.56 65.8907 10.172 65.5067 10.556C65.1307 10.932 64.5227 11.12 63.6827 11.12H60.6827C59.8427 11.12 59.2307 10.932 58.8467 10.556C58.4707 10.172 58.2827 9.56 58.2827 8.72V4.88C58.2827 4.04 58.4707 3.432 58.8467 3.056C59.2307 2.672 59.8427 2.48 60.6827 2.48H63.6827C64.5227 2.48 65.1307 2.672 65.5067 3.056C65.8907 3.432 66.0827 4.04 66.0827 4.88V8.72ZM67.2884 2.6H72.3284C73.1684 2.6 73.7764 2.792 74.1524 3.176C74.5364 3.552 74.7284 4.16 74.7284 5V6.2C74.7284 7.04 74.5364 7.652 74.1524 8.036C73.7764 8.412 73.1684 8.6 72.3284 8.6H69.4484V11H67.2884V2.6ZM72.5684 5C72.5684 4.52 72.3284 4.28 71.8484 4.28H69.4484V6.92H71.8484C72.3284 6.92 72.5684 6.68 72.5684 6.2V5ZM79.8879 11H77.7279V4.28H75.2079V2.6H82.4079V4.28H79.8879V11ZM87.2093 11H82.8893V9.32H83.9693V4.28H82.8893V2.6H87.2093V4.28H86.1293V9.32H87.2093V11ZM90.4484 11H88.2884V2.6H90.4484V5.9H91.5284L93.4004 2.6H95.6804L93.3284 6.74L95.6684 11H93.3884L91.5284 7.58H90.4484V11ZM97.8977 11H95.5577L98.7377 2.6H101.138L104.318 11H101.978L101.438 9.5H98.4377L97.8977 11ZM98.9777 7.94H100.898L99.9377 5.12L98.9777 7.94ZM44.8039 29H41.2039V15H52.3039V17.8H44.8039V21.1H50.7039V23.9H44.8039V29ZM62.7039 15H66.3039V25.2C66.3039 26.6 65.9839 27.62 65.3439 28.26C64.7172 28.8867 63.7039 29.2 62.3039 29.2H57.7039C56.3039 29.2 55.2839 28.8867 54.6439 28.26C54.0172 27.62 53.7039 26.6 53.7039 25.2V15H57.3039V25.2C57.3039 26 57.7039 26.4 58.5039 26.4H61.5039C62.3039 26.4 62.7039 26 62.7039 25.2V15ZM75.5039 29H71.9039V17.8H67.7039V15H79.7039V17.8H75.5039V29ZM90.1063 15H93.7063V25.2C93.7063 26.6 93.3863 27.62 92.7463 28.26C92.1196 28.8867 91.1063 29.2 89.7063 29.2H85.1063C83.7063 29.2 82.6863 28.8867 82.0463 28.26C81.4196 27.62 81.1063 26.6 81.1063 25.2V15H84.7063V25.2C84.7063 26 85.1063 26.4 85.9063 26.4H88.9063C89.7063 26.4 90.1063 26 90.1063 25.2V15ZM96.1063 15H104.506C105.906 15 106.92 15.32 107.546 15.96C108.186 16.5867 108.506 17.6 108.506 19V20.8C108.506 21.9067 108.32 22.7667 107.946 23.38C107.586 23.9933 107.006 24.4 106.206 24.6L108.706 29H104.806L102.506 24.8H99.7063V29H96.1063V15ZM104.906 19C104.906 18.2 104.506 17.8 103.706 17.8H99.7063V22H103.706C104.506 22 104.906 21.6 104.906 20.8V19ZM121.601 29H110.501V15H121.601V17.8H114.101V20.5H120.001V23.3H114.101V26.2H121.601V29Z" fill="white"/>
<circle cx="15" cy="15" r="14" stroke="black" stroke-width="2"/>
<circle cx="15" cy="15" r="6.81818" fill="black"/>
<ellipse cx="12.5587" cy="12.5587" rx="2.55682" ry="1.70455" transform="rotate(-45 12.5587 12.5587)" fill="white"/>
<path fill-rule="evenodd" clip-rule="evenodd" d="M22.1978 6.80228C22.0167 6.64315 21.8303 6.48992 21.6389 6.3429L20.2955 7.83485C20.4897 7.97859 20.6778 8.13003 20.8594 8.28873L22.1978 6.80228ZM9.70818 22.1679C11.1879 23.2621 13.0184 23.9091 15 23.9091C19.9203 23.9091 23.9091 19.9204 23.9091 15C23.9091 12.6832 23.0247 10.5729 21.5751 8.98832L22.9185 7.49632C24.7721 9.45168 25.9091 12.0931 25.9091 15C25.9091 21.0249 21.0249 25.9091 15 25.9091C12.5037 25.9091 10.2032 25.0706 8.36476 23.6599L9.70818 22.1679ZM8.93801 21.5288C8.76116 21.3645 8.591 21.1931 8.42797 21.0151L7.08462 22.507C7.25064 22.682 7.42241 22.8515 7.59961 23.0152L8.93801 21.5288ZM15 4.09091C17.1365 4.09091 19.1295 4.70509 20.8122 5.76652L19.4496 7.27991C18.1403 6.52366 16.6207 6.09091 15 6.09091C10.0796 6.09091 6.0909 10.0796 6.0909 15C6.0909 16.9548 6.72046 18.7625 7.78788 20.2315L6.42529 21.7448C4.96321 19.8887 4.0909 17.5462 4.0909 15C4.0909 8.97508 8.97506 4.09091 15 4.09091Z" fill="white"/>
</svg>
