<svg width="82" height="80" viewBox="0 0 82 80" fill="none" xmlns="http://www.w3.org/2000/svg">
<path d="M23.9227 54.88C23.9227 54.4 23.6827 54.16 23.2027 54.16H21.1627C20.6827 54.16 20.4427 54.4 20.4427 54.88V58.72C20.4427 59.2 20.6827 59.44 21.1627 59.44H23.2027C23.6827 59.44 23.9227 59.2 23.9227 58.72V54.88ZM26.0827 58.72C26.0827 59.56 25.8907 60.172 25.5067 60.556C25.1307 60.932 24.5227 61.12 23.6827 61.12H20.6827C19.8427 61.12 19.2307 60.932 18.8467 60.556C18.4707 60.172 18.2827 59.56 18.2827 58.72V54.88C18.2827 54.04 18.4707 53.432 18.8467 53.056C19.2307 52.672 19.8427 52.48 20.6827 52.48H23.6827C24.5227 52.48 25.1307 52.672 25.5067 53.056C25.8907 53.432 26.0827 54.04 26.0827 54.88V58.72ZM27.2884 52.6H32.3284C33.1684 52.6 33.7764 52.792 34.1524 53.176C34.5364 53.552 34.7284 54.16 34.7284 55V56.2C34.7284 57.04 34.5364 57.652 34.1524 58.036C33.7764 58.412 33.1684 58.6 32.3284 58.6H29.4484V61H27.2884V52.6ZM32.5684 55C32.5684 54.52 32.3284 54.28 31.8484 54.28H29.4484V56.92H31.8484C32.3284 56.92 32.5684 56.68 32.5684 56.2V55ZM39.8879 61H37.7279V54.28H35.2079V52.6H42.4079V54.28H39.8879V61ZM47.2093 61H42.8893V59.32H43.9693V54.28H42.8893V52.6H47.2093V54.28H46.1293V59.32H47.2093V61ZM50.4484 61H48.2884V52.6H50.4484V55.9H51.5284L53.4004 52.6H55.6804L53.3284 56.74L55.6684 61H53.3884L51.5284 57.58H50.4484V61ZM57.8977 61H55.5577L58.7377 52.6H61.1377L64.3177 61H61.9777L61.4377 59.5H58.4377L57.8977 61ZM58.9777 57.94H60.8977L59.9377 55.12L58.9777 57.94Z" fill="black"/>
<path d="M4.80391 79H1.20391V65H12.3039V67.8H4.80391V71.1H10.7039V73.9H4.80391V79ZM22.7039 65H26.3039V75.2C26.3039 76.6 25.9839 77.62 25.3439 78.26C24.7172 78.8867 23.7039 79.2 22.3039 79.2H17.7039C16.3039 79.2 15.2839 78.8867 14.6439 78.26C14.0172 77.62 13.7039 76.6 13.7039 75.2V65H17.3039V75.2C17.3039 76 17.7039 76.4 18.5039 76.4H21.5039C22.3039 76.4 22.7039 76 22.7039 75.2V65ZM35.5039 79H31.9039V67.8H27.7039V65H39.7039V67.8H35.5039V79ZM50.1063 65H53.7063V75.2C53.7063 76.6 53.3863 77.62 52.7463 78.26C52.1196 78.8867 51.1063 79.2 49.7063 79.2H45.1063C43.7063 79.2 42.6863 78.8867 42.0463 78.26C41.4196 77.62 41.1063 76.6 41.1063 75.2V65H44.7063V75.2C44.7063 76 45.1063 76.4 45.9063 76.4H48.9063C49.7063 76.4 50.1063 76 50.1063 75.2V65ZM56.1063 65H64.5063C65.9063 65 66.9196 65.32 67.5463 65.96C68.1863 66.5867 68.5063 67.6 68.5063 69V70.8C68.5063 71.9067 68.3196 72.7667 67.9463 73.38C67.5863 73.9933 67.0062 74.4 66.2062 74.6L68.7063 79H64.8063L62.5063 74.8H59.7063V79H56.1063V65ZM64.9062 69C64.9062 68.2 64.5063 67.8 63.7063 67.8H59.7063V72H63.7063C64.5063 72 64.9062 71.6 64.9062 70.8V69ZM81.6008 79H70.5008V65H81.6008V67.8H74.1008V70.5H80.0008V73.3H74.1008V76.2H81.6008V79Z" fill="#0081C9"/>
<circle cx="41" cy="22" r="20.5" stroke="black" stroke-width="3"/>
<circle cx="41" cy="22" r="10" fill="black"/>
<ellipse cx="37.4194" cy="18.4194" rx="3.75" ry="2.5" transform="rotate(-45 37.4194 18.4194)" fill="white"/>
<path fill-rule="evenodd" clip-rule="evenodd" d="M51.9029 10.2898C51.5304 9.94283 51.1414 9.61344 50.737 9.30292L48.722 11.5409C49.1322 11.8442 49.5239 12.1711 49.8951 12.5196L51.9029 10.2898ZM33.2835 32.4632C35.4417 34.0575 38.1108 35 41 35C48.1797 35 54 29.1797 54 22C54 18.6216 52.7113 15.5443 50.5987 13.2326L52.6139 10.9946C55.3324 13.8625 57 17.7365 57 22C57 30.8366 49.8366 38 41 38C37.3387 38 33.9647 36.7702 31.2683 34.7012L33.2835 32.4632ZM32.5012 31.8375C32.1156 31.5041 31.7498 31.1484 31.4059 30.7724L29.3908 33.0103C29.7413 33.3798 30.1093 33.7326 30.4935 34.0673L32.5012 31.8375ZM41 6C44.3027 6 47.3718 7.0007 49.9204 8.71545L47.8879 10.9727C45.8908 9.72262 43.5298 9 41 9C33.8203 9 28 14.8203 28 22C28 25.018 29.0284 27.7957 30.7539 30.002L28.7215 32.2592C26.3983 29.4817 25 25.9042 25 22C25 13.1634 32.1634 6 41 6Z" fill="#0081C9"/>
</svg>
